# AST/ASF file generated using VICON BodyLanguage
# -----------------------------------------------
:version 1.10
:name VICON
:units
  mass 1.0
  length 0.45
  angle deg
:documentation
   .ast/.asf automatically generated from VICON data using
   VICON BodyBuilder and BodyLanguage model FoxedUp or BRILLIANT.MOD
:root
   order TX TY TZ RX RY RZ
   axis XYZ
   position 0 0 0  
   orientation 0 0 0 
:bonedata
  begin
     id 1 
     name lhipjoint
     direction 0.543289 -0.788407 0.288535 
     length 2.57127 
     axis 0 0 0  XYZ
  end
  begin
     id 2 
     name lfemur
     direction 0.34202 -0.939693 0  
     length 8.47298  
     axis 0 0 20  XYZ
    dof rx ry rz
    limits (-160.0 20.0)
           (-70.0 70.0)
           (-60.0 70.0)
  end
  begin
     id 3 
     name ltibia
     direction 0.34202 -0.939693 0   
     length 8.13367   
     axis 0 0 20   XYZ
    dof rx
    limits (-10.0 170.0)
  end
  begin
     id 4 
     name lfoot
     direction 0.114037 -0.313314 0.942778   
     length 2.67113   
     axis -90 7.62852e-016 20   XYZ
    dof rx rz
    limits (-45.0 90.0)
           (-70.0 20.0)
  end
  begin
     id 5 
     name ltoes
     direction 1.536e-011 -4.21847e-011 1   
     length 1.32217   
     axis -90 7.62852e-016 20   XYZ
    dof rx
    limits (-90.0 20.0)
  end
  begin
     id 6 
     name rhipjoint
     direction -0.571293 -0.770752 0.282074   
     length 2.63017  
     axis 0 0 0  XYZ 
  end
  begin
     id 7 
     name rfemur
     direction -0.34202 -0.939693 0   
     length 8.60885   
     axis 0 0 -20   XYZ
    dof rx ry rz
    limits (-160.0 20.0)
           (-70.0 70.0)
           (-70.0 60.0)
  end
  begin
     id 8 
     name rtibia
     direction -0.34202 -0.939693 0   
     length 8.07673   
     axis 0 0 -20   XYZ
    dof rx
    limits (-10.0 170.0)
 end
 begin
     id 9 
     name rfoot
     direction -0.121336 -0.333368 0.934956   
     length 2.81602  
     axis -90 -7.62852e-016 -20   XYZ
    dof rx rz
    limits (-45.0 90.0)
           (-20.0 70.0)
  end
  begin
     id 10 
     name rtoes
     direction -1.53491e-011 -4.21808e-011 1   
     length 1.38905   
     axis -90 -7.62852e-016 -20   XYZ
    dof rx
    limits (-90.0 20.0)
  end
  begin
     id 11 
     name lowerback
     direction 0.0136776 0.999869 -0.00861835   
     length 2.14087   
     axis 0 0 0   XYZ
    dof rx ry rz
    limits (-20.0 45.0)
           (-30.0 30.0)
           (-30.0 30.0)
  end
  begin
     id 12 
     name upperback
     direction -0.00789158 0.999804 0.0181308   
     length 2.14151   
     axis 0 0 0   XYZ
    dof rx ry rz
    limits (-20.0 45.0)
           (-30.0 30.0)
           (-30.0 30.0)
  end
  begin
     id 13 
     name thorax
     direction -0.0135231 0.999666 0.0220247   
     length 2.13644   
     axis 0 0 0   XYZ
    dof rx ry rz
    limits (-20.0 45.0)
           (-30.0 30.0)
           (-30.0 30.0)
  end
  begin
     id 14 
     name lowerneck
     direction -0.0392259 0.997317 0.0618018   
     length 1.65045   
     axis 0 0 0   XYZ
    dof rx ry rz
    limits (-20.0 45.0)
           (-30.0 30.0)
           (-30.0 30.0)
  end
  begin
     id 15 
     name upperneck
     direction 0.0765547 0.994276 -0.0745319   
     length 1.66045   
     axis 0 0 0   XYZ
    dof rx ry rz
    limits (-20.0 45.0)
           (-30.0 30.0)
           (-30.0 30.0)
  end
  begin
     id 16
     name head
     direction 0.0241564 0.999031 -0.036785  
     length 1.66594  
     axis 0 0 0   XYZ
    dof rx ry rz
    limits (-20.0 45.0)
           (-30.0 30.0)
           (-30.0 30.0)
  end
  begin
     id 17 
     name lclavicle
     direction 0.967398 0.249018 0.0461573  
     length 3.75176  
     axis 0 0 0   XYZ
    dof ry rz
    limits (-20.0 10.0)
           (0.0 20.0)
  end
  begin
     id 18 
     name lhumerus
     direction 1 -4.48963e-011 -3.05005e-027   
     length 5.93342   
     axis 180 -30 -90   XYZ
    dof rx ry rz
    limits (-60.0 90.0)
           (-90.0 90.0)
           (-90.0 90.0)
  end
  begin
     id 19
     name lradius
     direction 1 -4.48957e-011 1.07006e-026   
     length 3.94763   
     axis 180 -30 -90   XYZ
    dof rx
    limits (-10.0 170.0)
  end
  begin
     id 20
     name lwrist
     direction 1 -4.48978e-011 1.92422e-026   
     length 1.97382   
     axis -1.18182e-014 90 90   XYZ
    dof ry
    limits (-180.0 0.0)
 end
  begin
     id 21 
     name lhand
     direction 1 -4.48931e-011 3.84844e-026   
     length 0.560187   
     axis -2.45563e-014 90 90   XYZ
    dof rx rz
    limits (-90.0 90.0)
           (-45.0 45.0)
  end
  begin
     id 22 
     name lfingers
     direction 1 -4.48952e-011 7.69687e-026   
     length 0.451637   
     axis -4.91126e-014 90 90   XYZ
    dof rx
    limits (0.0 90.0)
  end
  begin
     id 23
     name lthumb
     direction 0.707107 -6.34901e-011 0.707107   
     length 0.648463   
     axis -90 45 2.85299e-015   XYZ
    dof rx rz
    limits (-45.0 45.0)
           (-45.0 45.0)
  end
  begin
     id 24 
     name rclavicle
     direction -0.965946 0.258716 0.00371831   
     length 3.63667  
     axis 0 0 0   XYZ 
    dof ry rz
    limits (-10.0 20.0)
           (-20.0 0.0)
  end
  begin
     id 25 
     name rhumerus
     direction -1 -4.48966e-011 -1.78361e-028  
     length 6.28647   
     axis 180 30 90   XYZ
    dof rx ry rz
    limits (-90.0 60.0)
           (-90.0 90.0)
           (-90.0 90.0)
  end
  begin
     id 26 
     name rradius
     direction -1 -4.48961e-011 1.05248e-026   
     length 3.81645   
     axis 180 30 90   XYZ
    dof rx
    limits (-10.0 170.0)
  end
  begin
     id 27 
     name rwrist
     direction -1 -4.48979e-011 1.92422e-026   
     length 1.90822   
     axis -1.18182e-014 -90 -90   XYZ
    dof ry
    limits (-180.0 0.0)
  end
  begin
     id 28
     name rhand
     direction -1 -4.48937e-011 3.84844e-026   
     length 0.646185   
     axis -2.45563e-014 -90 -90   XYZ
    dof rx rz
    limits (-90.0 90.0)
           (-45.0 45.0)
  end
  begin
     id 29
     name rfingers
     direction -1 -4.48953e-011 7.69687e-026   
     length 0.520971   
     axis -4.91126e-014 -90 -90   XYZ
    dof rx
    limits (0.0 90.0)
  end
  begin
     id 30
     name rthumb
     direction -0.707107 -6.3494e-011 0.707107   
     length 0.748013   
     axis -90 -45 -2.85299e-015   XYZ
    dof rx rz
    limits (-45.0 45.0)
           (-45.0 45.0)
  end
:hierarchy
  begin
    root lhipjoint rhipjoint lowerback
    lhipjoint lfemur
    lfemur ltibia
    ltibia lfoot
    lfoot ltoes
    rhipjoint rfemur
    rfemur rtibia
    rtibia rfoot
    rfoot rtoes
    lowerback upperback
    upperback thorax
    thorax lowerneck lclavicle rclavicle
    lowerneck upperneck
    upperneck head
    lclavicle lhumerus
    lhumerus lradius
    lradius lwrist
    lwrist lhand lthumb
    lhand lfingers
    rclavicle rhumerus
    rhumerus rradius
    rradius rwrist
    rwrist rhand rthumb
    rhand rfingers
  end

#!OML:ASF H:\HAZMAT1\Patient Classification 1\Patient 3\Session 1\dancer.ASF
:FULLY-SPECIFIED
:DEGREES
137
upperback 4.257890 6.363650 4.517260
rfoot -27.094801 -38.290699
lradius 33.966099
lthumb -22.545601 -98.628601
rradius 35.635201
lwrist -33.259800
rhand -39.828300 -32.280499
rhumerus 37.639000 13.259100 294.136993
lowerneck -4.248160 -4.738900 12.587200
lhand -49.954700 69.925003
ltibia 123.294998
head 3.374480 -3.299790 0.459841
rwrist 32.934299
lfingers 7.125020
rtoes -14.929600
lowerback 11.461900 4.148080 9.774000
rfingers 7.125020
lclavicle 0.000000 -0.000000
upperneck 8.310580 -8.085850 8.880290
rfemur -41.688801 -5.752940 -20.317801
thorax -1.350360 3.073050 -1.474090
rclavicle 0.000000 -0.000000
rtibia 32.259800
lfoot -11.782400 -28.851801
lhumerus 28.249399 -10.252300 69.964203
rthumb -12.802200 298.131989
root -18.293200 10.763900 -1.193010 259.950012 211.992996 522.101990
ltoes 6.880810
lfemur -93.202499 24.612499 -33.243999
138
upperback 4.603860 6.214490 4.085120
rfoot 1.318670 -38.582600
lradius 40.081299
lthumb -22.888700 -99.174004
rradius 36.100800
lwrist -30.864599
rhand -40.546101 -32.918400
rhumerus 40.334400 17.289000 299.237000
lowerneck -2.036920 -3.581400 11.458000
lhand -50.312199 70.512497
ltibia 120.807999
head 1.692210 -2.558150 1.222740
rwrist 29.326799
lfingers 7.125020
rtoes -5.250940
lowerback 11.198600 4.095400 9.984860
rfingers 7.125020
lclavicle -0.000000 -0.000000
upperneck 4.245370 -5.760240 10.232300
rfemur -51.933998 -15.024400 -16.337299
thorax -0.778001 3.031270 -1.977050
rclavicle -0.000000 -0.000000
rtibia 36.603199
lfoot -11.884900 -18.035101
lhumerus 24.198200 -9.738030 69.061699
rthumb -13.494200 297.539001
root -17.900200 10.955900 -0.478647 264.446014 213.516998 518.101013
ltoes 8.060240
lfemur -85.498299 22.559999 -14.983200
139
upperback 6.869670 8.201230 4.474190
rfoot -8.169360 -12.745300
lradius 35.106201
lthumb -23.603001 -109.291000
rradius 32.140800
lwrist -33.399101
rhand -38.902100 -31.439501
rhumerus 48.432400 19.502600 305.946014
lowerneck -0.978478 -2.680870 11.957400
lhand -51.056801 80.719498
ltibia 121.871002
head 0.807412 -1.944160 0.605991
rwrist 29.041100
lfingers 7.125020
rtoes -11.549200
lowerback 17.841600 5.427270 9.349920
rfingers 7.125020
lclavicle -0.000000 -0.000000
upperneck 2.245460 -4.113100 8.359990
rfemur -122.891998 -26.946199 41.417099
thorax -1.832820 3.863780 -1.957040
rclavicle -0.000000 -0.000000
rtibia 98.918503
lfoot -14.430800 -11.590100
lhumerus 26.438200 -3.036360 75.135498
rthumb -11.909300 298.919006
root -17.051100 11.011100 0.149384 267.634003 218.600006 507.541992
ltoes 10.540600
lfemur -76.533501 23.623301 -8.564810
140
upperback 9.305280 9.952740 3.033250
rfoot -21.673401 -17.047300
lradius 25.177500
lthumb -22.094900 -115.932999
rradius 24.739300
lwrist -37.696800
rhand -40.751400 -33.144798
rhumerus 51.027901 17.900400 312.808014
lowerneck 0.017995 -3.753080 12.518100
lhand -49.485100 87.175499
ltibia 120.931000
head 1.200300 -2.565730 1.027100
rwrist 27.519600
lfingers 7.125020
rtoes -1.039250
lowerback 19.011101 7.627640 4.525230
rfingers 7.125020
lclavicle 0.000000 -0.000000
upperneck 3.932600 -5.612240 9.983380
rfemur -137.173996 14.037600 63.669800
thorax -0.248736 4.687160 -1.125590
rclavicle 0.000000 -0.000000
rtibia 119.375999
lfoot -16.656099 -7.514280
lhumerus 33.325802 -4.991670 80.197098
rthumb -13.692000 297.325989
root -16.597900 10.824600 0.887104 265.381012 225.625000 504.868988
ltoes 10.301800
lfemur -66.315201 13.760500 -7.177610
141
upperback 9.471220 7.591180 0.496908
rfoot -31.606501 -22.714500
lradius 24.582300
lthumb -20.287901 -122.293999
rradius 28.049400
lwrist -31.016199
rhand -42.330799 -34.782101
rhumerus 50.813599 14.664000 322.717987
lowerneck -0.687111 -4.255350 13.660900
lhand -47.604000 -93.333099
ltibia 110.565002
head 1.167490 -2.997440 1.690900
rwrist 21.522699
lfingers 7.125020
rtoes 10.297100
lowerback 18.774900 5.267230 9.226580
rfingers 7.125020
lclavicle -0.000000 -0.000000
upperneck 3.235720 -6.444080 12.639600
rfemur -137.957993 10.964000 59.194801
thorax 1.036760 3.846290 -5.867100
rclavicle -0.000000 -0.000000
rtibia 109.063004
lfoot -13.889800 -8.736320
lhumerus 39.741001 -12.314300 75.383698
rthumb -15.213800 295.796997
root -16.483400 11.488300 1.577880 264.998993 228.356995 514.905029
ltoes -2.803770
lfemur -72.712898 6.131430 -15.583800
142
upperback 10.051900 7.342910 0.929403
rfoot -17.169600 -8.951810
lradius 11.028800
lthumb -13.622200 -92.970901
rradius 28.962400
lwrist -40.553799
rhand -16.716200 -12.416000
rhumerus 57.971600 0.097405 326.700989
lowerneck -3.340780 -5.602740 17.389500
lhand -40.679001 -296.562988
ltibia 117.396004
head 0.490729 -4.239810 1.195790
rwrist 17.115499
lfingers 7.125020
rtoes 13.641600
lowerback 24.338600 4.614680 10.964500
rfingers 7.125020
lclavicle 0.000000 0.000000
upperneck 0.166359 -8.478760 12.930600
rfemur -129.195007 5.521060 48.940399
thorax -0.907157 3.573060 -6.854060
rclavicle 0.000000 0.000000
rtibia 84.937202
lfoot -16.410601 -10.083300
lhumerus 51.431599 -6.171840 85.443298
rthumb 9.509160 317.819000
root -15.315900 13.926000 2.610060 272.024994 241.875000 510.325012
ltoes 5.127210
lfemur -102.730003 5.071620 -5.797860
143
upperback 10.491200 1.438030 -3.126210
rfoot 13.580600 2.953130
lradius 16.473200
lthumb 5.051170 -297.487000
rradius 34.337601
lwrist -24.950800
rhand -16.370199 -13.075200
rhumerus 27.465000 -1.357420 291.365997
lowerneck 0.087381 -7.737740 9.860470
lhand -21.334700 -327.407013
ltibia 93.557503
head 2.325270 -5.947880 5.198990
rwrist 21.486000
lfingers 7.125020
rtoes 16.900101
lowerback 19.802500 0.275299 12.380900
rfingers 7.125020
lclavicle 0.000000 0.000000
upperneck 4.598660 -12.385100 23.230900
rfemur -102.961998 -2.050960 36.026402
thorax 1.042150 1.037020 -10.776300
rclavicle 0.000000 0.000000
rtibia 51.341499
lfoot -22.019100 -21.879101
lhumerus 41.232399 -15.337800 63.863998
rthumb 9.843050 317.174988
root -12.673100 15.943300 5.045390 336.014008 260.175995 428.187988
ltoes 12.001500
lfemur -88.509697 -13.091600 4.725590
144
upperback 6.653430 -3.948300 -2.106060
rfoot -16.913601 -16.557699
lradius 24.603600
lthumb 12.413900 -301.251007
rradius 33.225899
lwrist -9.691300
rhand -20.470400 -17.201099
rhumerus 1.908320 11.489700 281.548004
lowerneck 2.359350 -9.820100 -4.130590
lhand -13.704600 -330.862000
ltibia 76.820297
head 4.192160 -7.607440 5.806890
rwrist 15.186900
lfingers 7.125020
rtoes -1.493710
lowerback 10.886500 -2.866800 3.824040
rfingers 7.125020
lclavicle -0.000000 0.000000
upperneck 9.232650 -15.719100 18.813601
rfemur -81.436302 -3.881520 26.278900
thorax 0.468719 -2.029710 -3.922270
rclavicle -0.000000 0.000000
rtibia 86.737198
lfoot -30.041700 9.241010
lhumerus 3.500900 -2.459390 69.774101
rthumb 5.885650 312.901001
root -10.180000 16.654100 7.934930 384.015991 222.649994 367.365997
ltoes 13.096600
lfemur -73.442497 -7.832860 -17.207899
